<svg version="1.0" xmlns="http://www.w3.org/2000/svg"
 width="111.000000pt" height="262.000000pt" viewBox="0 0 111.000000 262.000000"
 preserveAspectRatio="xMidYMid meet">
<metadata>
Created by potrace 1.16, written by Peter Selinger 2001-2019
</metadata>
<g transform="translate(0.000000,262.000000) scale(0.100000,-0.100000)"
fill="#000000" stroke="none">
<path d="M210 2553 c0 -32 -7 -94 -15 -138 -17 -86 -13 -160 12 -208 15 -30
100 -77 140 -77 37 0 105 -61 135 -120 15 -30 25 -56 22 -59 -10 -10 -60 37
-77 72 -40 85 -152 116 -247 69 -78 -38 -186 -102 -173 -102 6 0 50 -36 98
-80 123 -114 195 -128 276 -55 43 39 77 55 114 55 18 0 31 -14 60 -67 39 -72
92 -143 175 -237 79 -90 121 -159 136 -223 14 -60 18 -169 8 -219 l-6 -29 -51
50 c-29 28 -63 58 -77 68 l-25 16 43 38 c31 28 42 46 42 66 0 27 -39 116 -52
117 -3 0 -25 -21 -48 -47 -46 -53 -48 -81 -10 -130 29 -38 24 -52 -7 -20 -20
20 -29 40 -33 78 -6 66 -32 87 -120 99 -35 5 -65 8 -66 7 -5 -5 24 -114 35
-135 16 -31 43 -42 94 -40 43 2 117 -30 90 -39 -7 -3 -23 3 -37 12 -44 29 -85
16 -128 -40 l-37 -49 59 -18 c72 -22 105 -13 125 36 25 60 56 55 130 -21 62
-64 67 -80 41 -144 -28 -69 -86 -148 -198 -268 -109 -117 -143 -167 -168 -249
-30 -96 -35 -182 -17 -307 9 -60 19 -134 22 -163 7 -50 9 -53 34 -50 24 3 26
6 24 48 -2 25 -10 107 -19 183 -14 113 -15 151 -5 208 18 108 45 150 206 326
151 163 204 271 212 428 6 112 -14 204 -64 295 -31 57 -35 71 -30 115 12 108
46 163 87 137 11 -6 28 -17 39 -24 28 -17 73 5 109 56 l31 43 -49 17 c-71 26
-99 19 -133 -32 -33 -49 -47 -50 -22 -3 8 17 34 43 56 56 58 37 65 63 36 151
l-23 73 -57 -55 c-68 -65 -77 -91 -48 -137 22 -36 28 -101 11 -112 -6 -4 -10
10 -10 34 0 79 -19 98 -116 115 l-31 5 4 -52 c7 -73 29 -101 84 -105 57 -4 64
-13 45 -51 -9 -17 -22 -55 -29 -86 l-12 -54 -75 85 c-78 90 -141 178 -161 226
-27 65 19 108 115 108 100 0 151 69 146 199 -2 42 -3 97 -3 124 0 26 0 47 -1
47 -1 0 -46 -16 -101 -35 -122 -43 -170 -75 -186 -123 -15 -45 -15 -113 0
-140 13 -25 15 -99 2 -107 -15 -8 -51 100 -51 152 0 26 12 82 27 124 25 69 26
80 14 118 -17 58 -80 118 -166 159 -38 19 -87 47 -107 63 -20 16 -39 29 -42
29 -3 0 -6 -26 -6 -57z"/>
</g>
</svg>