<svg version="1.0" xmlns="http://www.w3.org/2000/svg"
 width="1661.000000pt" height="1909.000000pt" viewBox="0 0 1661.000000 1909.000000"
 preserveAspectRatio="xMidYMid meet">
<metadata>
Created by potrace 1.16, written by Peter Selinger 2001-2019
</metadata>
<g transform="translate(0.000000,1909.000000) scale(0.100000,-0.100000)"
fill="#000000" stroke="none">
<path d="M5670 18784 c-30 -30 -77 -65 -103 -77 -89 -41 -140 -170 -158 -397
-10 -131 -31 -230 -71 -338 -23 -63 -56 -82 -93 -58 -34 22 -39 65 -25 217 15
160 8 208 -38 236 -15 9 -38 27 -52 39 -14 13 -45 34 -70 47 -29 15 -53 38
-70 68 -23 38 -31 44 -60 44 -32 0 -34 -2 -51 -57 -9 -31 -33 -86 -53 -121
-33 -60 -36 -72 -36 -144 0 -66 6 -93 36 -171 19 -50 51 -113 70 -140 79 -108
105 -208 68 -260 -27 -39 -67 -29 -111 26 -21 26 -68 77 -104 114 -53 53 -77
70 -119 82 -55 17 -116 19 -160 7 -33 -9 -70 -75 -70 -126 0 -58 25 -153 46
-176 28 -31 122 -85 231 -132 128 -57 207 -113 324 -234 110 -113 116 -127
129 -309 4 -61 10 -116 13 -121 8 -12 129 -475 162 -618 13 -55 45 -163 71
-240 46 -134 48 -145 48 -250 0 -121 -20 -216 -57 -275 -27 -41 -35 -61 -93
-203 -24 -59 -61 -138 -83 -175 -22 -37 -52 -98 -67 -135 -30 -76 -46 -90
-120 -105 -27 -6 -90 -22 -138 -36 -49 -15 -107 -26 -130 -26 -57 0 -203 42
-267 76 -61 33 -229 195 -309 299 -94 122 -210 243 -256 269 -107 60 -335 140
-429 151 -27 4 -81 15 -120 25 -38 11 -95 22 -125 25 -30 4 -91 13 -135 22
-173 33 -414 -8 -700 -120 -77 -30 -174 -64 -215 -76 -41 -12 -111 -36 -155
-53 -69 -26 -87 -29 -135 -23 -101 14 -231 10 -293 -8 -45 -14 -74 -32 -122
-77 -42 -39 -77 -63 -106 -71 -311 -86 -607 -182 -674 -218 -80 -43 -345 -204
-420 -256 -27 -19 -80 -54 -116 -79 -62 -41 -69 -50 -97 -119 -40 -94 -55
-194 -50 -321 5 -115 14 -140 87 -225 184 -215 435 -436 658 -579 54 -34 145
-93 203 -130 58 -37 128 -81 155 -97 70 -40 131 -92 169 -145 39 -54 120 -101
219 -126 68 -17 217 -97 462 -249 256 -158 332 -195 451 -219 90 -19 162 -44
218 -77 36 -21 43 -22 169 -13 73 4 185 8 250 7 101 -2 126 -6 175 -27 94 -40
125 -40 235 -1 53 19 133 53 179 76 58 29 106 45 167 55 69 11 111 26 216 78
72 35 138 67 148 70 30 10 142 -51 187 -101 63 -71 117 -268 135 -488 3 -44
12 -120 20 -170 39 -256 32 -302 -52 -364 -81 -57 -158 -115 -253 -188 -92
-71 -121 -78 -168 -38 -38 32 -56 71 -88 191 -35 134 -119 309 -169 353 -38
33 -39 33 -117 29 -69 -4 -82 -8 -108 -33 -72 -69 -58 -218 30 -324 26 -31 55
-71 64 -89 9 -17 27 -47 40 -66 12 -19 29 -55 36 -80 36 -130 -90 -166 -264
-76 -72 38 -88 42 -196 52 -153 14 -176 9 -244 -53 -32 -29 -72 -55 -93 -61
-105 -28 -97 -93 20 -148 26 -12 55 -33 64 -47 9 -13 41 -41 72 -61 l56 -37
198 0 c185 0 200 -1 213 -19 8 -11 14 -25 14 -32 0 -48 -129 -112 -301 -149
-124 -26 -183 -53 -251 -114 -45 -40 -94 -118 -113 -180 -4 -14 -23 -49 -42
-78 -34 -53 -37 -86 -10 -96 7 -2 93 -1 193 3 209 7 211 8 349 125 95 81 137
108 200 130 89 30 125 4 125 -89 0 -72 -12 -115 -49 -170 -14 -21 -35 -53 -46
-71 -11 -17 -34 -47 -50 -66 -17 -19 -48 -69 -69 -112 -32 -66 -39 -91 -43
-162 -6 -83 -6 -84 36 -160 26 -47 44 -95 48 -125 5 -46 8 -50 32 -50 18 0 39
12 62 36 18 20 57 49 86 65 28 17 62 41 76 55 33 33 114 276 122 369 23 253
151 388 299 315 57 -27 82 -70 122 -206 20 -66 43 -139 51 -164 20 -55 91
-130 124 -130 32 0 139 -52 163 -79 23 -25 53 -27 60 -3 35 113 44 247 22 348
-23 107 -61 166 -172 269 -113 105 -134 140 -137 221 -2 48 1 58 22 75 13 10
36 19 53 19 16 0 49 9 73 20 25 11 103 36 175 55 128 34 350 130 409 176 32
25 149 166 167 201 8 15 22 63 30 105 26 124 66 185 136 204 63 17 119 -9 239
-110 34 -29 59 -83 59 -129 0 -26 80 -103 122 -117 37 -12 42 -21 59 -99 l13
-59 61 -27 c35 -16 72 -41 86 -59 13 -17 43 -54 66 -82 23 -29 45 -65 48 -81
10 -46 59 -95 103 -103 49 -9 76 -27 113 -78 17 -23 49 -51 72 -62 33 -16 47
-31 65 -70 12 -28 26 -57 31 -65 4 -8 38 -23 76 -32 76 -20 156 -73 201 -136
19 -27 42 -44 75 -56 44 -15 57 -26 107 -94 12 -16 31 -25 62 -29 35 -4 55
-15 88 -47 24 -22 50 -54 58 -69 30 -56 164 -128 349 -188 33 -10 74 -28 92
-39 29 -17 86 -85 95 -112 2 -5 39 -14 83 -19 62 -7 89 -15 124 -39 25 -16 97
-55 159 -85 62 -31 127 -68 145 -84 27 -24 44 -29 111 -35 110 -9 229 -42 286
-81 45 -31 50 -32 98 -22 48 10 52 9 89 -19 32 -24 45 -28 90 -26 28 2 75 -4
105 -12 56 -15 199 -21 513 -21 153 0 196 4 285 24 187 42 223 39 279 -24 42
-48 46 -94 17 -195 -31 -106 -107 -330 -146 -430 -59 -154 -84 -323 -78 -537
4 -136 8 -168 30 -228 57 -158 116 -232 214 -268 48 -17 64 -28 197 -135 53
-43 67 -59 67 -81 0 -38 -29 -61 -74 -61 -51 0 -94 -22 -144 -73 -35 -36 -42
-51 -51 -104 -17 -110 15 -163 120 -198 42 -14 78 -17 208 -13 243 7 343 -15
371 -82 11 -26 10 -37 -5 -76 -24 -63 -71 -106 -143 -133 -108 -39 -236 -108
-274 -148 -55 -57 -68 -97 -68 -213 0 -67 -5 -113 -15 -137 -31 -73 -11 -128
37 -101 14 7 75 15 153 18 l130 5 67 43 c88 57 158 135 201 225 46 97 81 137
118 137 45 0 63 -36 56 -115 -11 -116 -33 -167 -139 -326 -152 -227 -182 -338
-138 -500 20 -76 21 -112 4 -170 -4 -13 5 -18 41 -23 37 -6 51 -3 74 13 15 11
50 26 77 32 156 37 201 69 255 183 34 71 54 158 74 321 39 320 75 415 162 431
59 11 83 -23 145 -206 34 -102 40 -132 48 -265 12 -181 23 -245 57 -348 29
-91 66 -139 120 -155 51 -16 88 -48 116 -102 35 -67 58 -65 97 9 18 33 48 78
67 101 96 112 81 311 -43 555 -31 61 -65 133 -76 160 -11 28 -33 71 -49 96
-55 86 -70 150 -77 319 -10 241 -8 270 16 316 22 43 74 94 120 118 15 7 81 29
147 47 116 31 129 33 370 40 213 5 262 10 329 28 92 26 162 59 191 91 33 36
76 63 129 80 62 20 73 37 55 75 -14 30 -27 38 -113 77 -31 13 -58 35 -75 59
-31 45 -74 65 -173 80 -154 24 -307 -4 -499 -92 -131 -59 -188 -74 -337 -89
-184 -17 -225 4 -307 166 -27 54 -68 116 -91 139 -89 92 -293 200 -419 224
-56 10 -85 38 -85 80 0 15 18 65 41 112 31 65 59 103 123 169 46 47 96 108
111 135 16 28 56 88 90 135 34 47 94 131 134 188 40 56 101 134 135 173 84 95
124 163 137 234 15 85 78 213 122 252 49 43 87 48 252 36 109 -8 154 -16 205
-36 36 -15 94 -33 130 -42 98 -25 156 -61 208 -130 25 -33 60 -76 77 -95 18
-19 44 -53 58 -74 15 -22 45 -49 69 -61 24 -12 52 -36 63 -55 11 -19 41 -54
66 -79 26 -25 58 -64 72 -87 21 -34 32 -42 66 -48 53 -8 117 -65 132 -116 9
-29 20 -41 50 -54 22 -10 51 -36 72 -64 26 -36 44 -51 76 -60 59 -18 107 -64
126 -121 20 -60 34 -74 108 -101 66 -25 120 -68 144 -114 9 -17 31 -48 49 -68
18 -20 38 -55 45 -78 7 -22 34 -66 61 -96 26 -30 52 -64 58 -74 6 -11 28 -29
49 -39 21 -11 52 -36 70 -56 38 -44 106 -176 122 -239 7 -28 18 -48 29 -51 10
-3 34 -23 52 -43 28 -31 41 -62 72 -175 l38 -137 47 -23 c82 -42 116 -119 136
-309 5 -53 10 -68 25 -73 32 -10 70 -46 89 -83 20 -40 61 -231 61 -285 0 -24
8 -41 31 -63 63 -60 89 -149 89 -309 0 -88 1 -92 30 -120 28 -27 30 -33 30
-109 0 -82 20 -304 40 -450 7 -44 11 -129 10 -190 -2 -146 15 -506 30 -626 8
-60 9 -140 5 -220 -4 -69 -6 -145 -4 -170 6 -78 4 -290 -4 -430 -16 -296 -34
-419 -102 -690 -18 -74 -41 -175 -50 -225 -26 -146 -91 -393 -131 -500 -20
-55 -48 -134 -62 -175 -15 -46 -61 -132 -116 -220 -49 -80 -126 -203 -170
-275 -118 -189 -225 -291 -489 -462 -149 -97 -252 -144 -442 -206 -265 -86
-501 -128 -840 -151 -426 -30 -444 -32 -476 -77 -12 -17 -23 -48 -26 -69 l-6
-40 54 -24 c87 -40 198 -49 639 -50 404 -1 406 -1 555 27 83 15 222 41 310 57
260 48 420 92 523 144 136 68 288 167 402 262 219 181 347 298 420 381 47 54
102 113 122 133 20 19 47 60 61 90 24 54 51 92 135 192 42 49 91 142 134 257
14 36 37 71 69 101 53 51 69 83 69 139 0 21 7 60 15 87 8 27 15 61 15 75 0 44
30 101 73 141 37 34 43 46 54 105 46 265 53 289 96 328 34 31 34 32 40 146 3
62 13 150 23 194 15 69 22 84 53 112 l36 31 -3 99 c-5 159 6 259 33 291 21 25
23 38 27 197 5 177 12 211 56 277 23 35 24 44 18 120 -4 46 -7 134 -8 196 l-2
113 31 28 c51 46 56 87 27 197 -30 116 -30 190 -3 306 21 89 21 92 4 206 -24
160 -25 317 -3 359 15 27 16 40 7 90 -6 32 -24 88 -40 126 -25 56 -31 85 -36
180 -5 94 -3 118 11 145 15 29 15 38 2 94 -8 35 -24 85 -35 112 -31 71 -81
265 -81 312 0 23 -10 63 -22 90 -17 36 -23 69 -23 124 0 78 -1 79 -76 221 -11
20 -31 83 -45 140 -14 57 -35 119 -45 138 -14 23 -19 49 -18 85 2 47 -2 59
-44 120 -26 38 -47 73 -47 79 0 5 -11 24 -24 41 -13 17 -37 58 -54 92 -17 33
-37 66 -46 73 -20 17 -20 49 0 90 9 18 13 42 10 59 -9 39 -149 234 -280 388
-28 34 -31 64 -12 114 11 26 -31 78 -84 105 -39 20 -55 35 -67 63 -8 20 -37
60 -63 88 -26 27 -51 61 -55 75 -4 13 -21 39 -39 57 -30 32 -31 37 -31 117 0
102 0 101 -163 211 -64 43 -135 95 -157 114 -22 20 -59 49 -83 64 -48 33 -75
72 -91 133 -12 44 -53 84 -101 98 -41 12 -141 65 -203 107 -60 40 -96 96 -97
145 0 28 -41 60 -94 74 -57 15 -191 77 -251 115 -27 17 -60 35 -72 39 -14 4
-25 17 -28 33 -16 78 -41 91 -218 113 -107 13 -157 30 -307 102 -63 31 -151
70 -195 87 -146 57 -493 315 -665 495 -25 26 -77 73 -116 105 -81 67 -98 99
-140 257 -31 116 -34 122 -126 261 -80 120 -230 276 -457 476 -74 64 -163 150
-196 189 -34 40 -104 113 -157 162 -99 94 -145 162 -219 319 -68 147 -65 173
41 316 137 184 176 303 188 563 10 224 14 229 162 181 89 -29 153 -73 215
-148 38 -47 119 -109 216 -166 128 -77 270 -106 354 -75 36 14 51 16 71 6 37
-16 110 -14 128 5 22 22 20 32 -15 98 -21 38 -34 80 -40 128 -10 82 -41 141
-96 188 -59 49 -246 135 -383 175 -207 61 -272 87 -350 140 -41 28 -89 70
-107 93 -37 49 -63 126 -63 190 0 95 79 323 148 426 16 22 41 68 56 101 22 45
55 86 136 165 172 169 239 310 226 480 -20 270 -23 276 -125 224 -40 -20 -103
-41 -151 -50 -49 -9 -98 -26 -120 -40 -53 -35 -108 -114 -125 -177 -8 -30 -37
-113 -66 -183 -28 -71 -58 -149 -66 -174 -50 -146 -68 -182 -114 -225 -55 -52
-92 -64 -128 -44 -64 36 -65 88 -4 436 66 377 63 463 -17 560 -22 26 -56 70
-76 96 -40 53 -85 81 -114 72 -11 -4 -20 -15 -20 -26 0 -35 -18 -56 -74 -89
-30 -17 -68 -46 -84 -64 -63 -73 -101 -326 -68 -456 20 -75 80 -278 108 -363
10 -32 19 -83 20 -113 1 -47 -2 -58 -27 -84 -61 -64 -115 -27 -130 90 -23 176
-78 334 -145 418 -38 48 -61 65 -148 108 -83 42 -108 50 -134 45 -27 -6 -34
-13 -39 -41 -4 -19 -20 -45 -37 -60 -41 -35 -52 -60 -52 -122 0 -173 99 -351
264 -474 86 -64 166 -158 166 -194 0 -34 -40 -70 -79 -70 -37 0 -64 21 -187
145 -61 61 -135 125 -165 143 -108 63 -322 81 -376 30 -77 -72 -66 -222 23
-327 36 -44 178 -106 346 -152 99 -28 173 -63 242 -117 33 -26 107 -80 163
-120 56 -39 111 -84 122 -98 44 -55 22 -112 -95 -255 -58 -71 -75 -101 -112
-199 -69 -182 -111 -308 -123 -374 -7 -34 -20 -77 -29 -96 -18 -35 -40 -119
-59 -220 -23 -122 -64 -320 -82 -394 -21 -87 -18 -107 25 -238 33 -98 57 -244
46 -274 -5 -12 -18 -28 -29 -33 -25 -14 -78 -14 -86 -1 -3 6 -24 10 -47 10
-38 0 -118 35 -118 51 0 5 -28 6 -62 3 -83 -7 -129 19 -174 96 -49 84 -63 93
-152 99 -87 7 -114 20 -178 88 -26 27 -49 43 -65 43 -13 0 -65 5 -115 10 -82
9 -101 15 -195 65 -121 65 -183 111 -344 255 -234 211 -315 278 -417 345 -204
134 -242 161 -312 220 -39 34 -109 90 -156 125 -47 35 -184 163 -305 283 -121
121 -251 243 -290 272 -38 29 -134 104 -211 166 -131 105 -370 256 -459 289
-16 6 -86 36 -155 66 -69 31 -143 63 -165 72 -62 26 -113 79 -153 156 -33 66
-36 79 -39 181 -4 107 -3 115 46 292 50 179 87 269 155 376 84 131 149 263
173 350 23 83 25 105 20 222 -5 142 -12 171 -98 405 -28 74 -63 153 -79 175
-16 22 -41 60 -57 85 -15 25 -51 72 -81 105 -29 33 -86 112 -125 175 -39 63
-88 141 -109 174 -21 32 -38 65 -38 72 0 22 38 54 63 54 42 0 134 -37 238 -96
101 -56 102 -57 183 -56 93 1 177 30 231 81 40 38 67 51 104 51 29 0 31 3 31
34 0 26 -7 41 -31 60 -17 14 -35 26 -41 26 -5 0 -37 26 -71 59 -90 86 -170
138 -230 151 -71 14 -176 17 -273 6 -77 -8 -83 -7 -104 14 -19 19 -22 30 -17
71 8 64 39 121 101 187 57 61 117 94 283 157 154 59 199 92 229 174 13 35 24
74 24 88 0 29 21 76 55 122 51 70 17 96 -89 68 -47 -12 -88 -15 -176 -10 -105
5 -119 4 -155 -15 -58 -31 -72 -46 -154 -156 -96 -130 -150 -187 -238 -252
-88 -65 -114 -73 -142 -45 -45 45 -20 135 73 260 35 47 73 102 84 121 33 57
62 167 62 234 -1 72 -15 116 -57 174 -17 23 -36 65 -43 92 -16 65 -31 65 -100
-6z"/>
<path d="M3580 10239 c0 -5 5 -7 10 -4 6 3 10 8 10 11 0 2 -4 4 -10 4 -5 0
-10 -5 -10 -11z"/>
</g>
</svg>